<?xml version="1.0" encoding="UTF-8" standalone="no"?>
<!-- Created with Inkscape (http://www.inkscape.org/) -->

<svg
   width="468"
   height="60"
   viewBox="0 0 123.825 15.875"
   version="1.1"
   id="svg5"
   xmlns="http://www.w3.org/2000/svg"
   xmlns:svg="http://www.w3.org/2000/svg">
  <defs
     id="defs2" />
  <g
     id="layer1">
    <path
       id="path2007"
       style="fill:#001424;fill-opacity:1;stroke-width:0.335117;stroke-linecap:round"
       d="m 123.825,8.3094178 c 0,0 -11.18655,-7.71474432 -19.16405,-7.56647432 C 95.912385,0.90554458 85.400749,7.0318741 75.437027,8.6125186 69.424426,9.5663576 63.246387,10.24603 57.197977,9.5547114 46.927632,8.380835 37.720339,1.3047629 27.387395,1.0077279 18.032997,0.73882257 0,7.182217 0,7.182217 v 8.694107 h 123.825 z" />
    <path
       id="rect948"
       style="fill:#ffffff;stroke-width:0.335117;stroke-linecap:round"
       d="m 0,7.182217 c 0,0 19.240601,-3.2150755 28.886404,-2.5753585 10.526204,0.6981058 18.003157,7.0359765 30.875715,6.9487455 13.145695,-0.08908 29.772955,-8.9449046 45.025331,-8.346239 6.56456,0.2576634 19.03755,5.1000528 19.03755,5.1000528 V 15.876324 H 0 Z" />
  </g>
</svg>
